<svg xmlns="http://www.w3.org/2000/svg" xmlns:xlink="http://www.w3.org/1999/xlink" width="5400" zoomAndPan="magnify" viewBox="0 0 4050 2699.999998" height="3600" preserveAspectRatio="xMidYMid meet" version="1.0"><defs><clipPath id="a3fcf9320f"><path d="M 0 1390.695312 L 2356.433594 1390.695312 L 2356.433594 2700 L 0 2700 Z M 0 1390.695312 " clip-rule="nonzero"/></clipPath><clipPath id="d5f49b5633"><path d="M 2523.386719 0 L 4050 0 L 4050 2302.761719 L 2523.386719 2302.761719 Z M 2523.386719 0 " clip-rule="nonzero"/></clipPath></defs><rect x="-405" width="4860" fill="#ffffff" y="-270" height="3239.999997" fill-opacity="1"/><rect x="-405" width="4860" fill="#ffffff" y="-270" height="3239.999997" fill-opacity="1"/><rect x="-405" width="4860" fill="#f5f5f5" y="-270" height="3239.999997" fill-opacity="1"/><g clip-path="url(#a3fcf9320f)"><path fill="#f1f1f1" d="M 1047.308594 1390.695312 C 324.296875 1390.695312 -261.816406 1976.808594 -261.816406 2699.820312 C -261.816406 3422.828125 324.296875 4008.945312 1047.308594 4008.945312 C 1770.316406 4008.945312 2356.433594 3422.828125 2356.433594 2699.820312 C 2356.433594 1976.808594 1770.316406 1390.695312 1047.308594 1390.695312 " fill-opacity="1" fill-rule="nonzero"/></g><g clip-path="url(#d5f49b5633)"><path fill="#f1f1f1" d="M 3832.511719 -315.488281 C 3109.503906 -315.488281 2523.386719 270.628906 2523.386719 993.636719 C 2523.386719 1716.648438 3109.503906 2302.761719 3832.511719 2302.761719 C 4555.523438 2302.761719 5141.636719 1716.648438 5141.636719 993.636719 C 5141.636719 270.628906 4555.523438 -315.488281 3832.511719 -315.488281 " fill-opacity="1" fill-rule="nonzero"/></g></svg>