<svg xmlns="http://www.w3.org/2000/svg" xmlns:xlink="http://www.w3.org/1999/xlink" width="100" zoomAndPan="magnify" viewBox="0 0 75 74.999997" height="100" preserveAspectRatio="xMidYMid meet" version="1.0"><defs><clipPath id="id1"><path d="M 13 0 L 73.5 0 L 73.5 75 L 13 75 Z M 13 0 " clip-rule="nonzero"/></clipPath></defs><path fill="#204666" d="M 41.84375 42 C 34.660156 42 27.003906 45.101562 26.371094 57.515625 L 57.320312 57.515625 C 56.6875 45.101562 49.03125 42 41.84375 42 Z M 41.84375 42 " fill-opacity="1" fill-rule="nonzero"/><path fill="#204666" d="M 11.429688 0.414062 L 6.15625 0.414062 C 5.296875 0.414062 3.984375 1.113281 3.984375 1.964844 L 3.984375 73.34375 C 3.984375 74.207031 5.296875 74.898438 6.15625 74.898438 L 11.429688 74.898438 Z M 11.429688 0.414062 " fill-opacity="1" fill-rule="nonzero"/><g clip-path="url(#id1)"><path fill="#204666" d="M 63.570312 0.414062 L 13.914062 0.414062 L 13.914062 74.898438 L 66.671875 74.898438 C 70.09375 74.898438 73.5 72.109375 73.5 68.691406 L 73.5 9.722656 C 73.5 4.589844 68.703125 0.414062 63.570312 0.414062 Z M 41.84375 15.929688 C 46.980469 15.929688 51.15625 20.105469 51.15625 25.242188 C 51.15625 30.375 46.980469 34.550781 41.84375 34.550781 C 36.710938 34.550781 32.535156 30.375 32.535156 25.242188 C 32.535156 20.105469 36.710938 15.929688 41.84375 15.929688 Z M 58.976562 60 C 58.953125 60 58.933594 60 58.914062 60 L 24.777344 60 C 23.917969 60 23.222656 58.996094 23.222656 58.136719 C 23.222656 45.882812 30.53125 37.808594 41.84375 37.808594 C 53.019531 37.808594 60.285156 45.464844 60.464844 57.457031 C 60.503906 57.601562 60.527344 58.023438 60.527344 58.175781 C 60.527344 59.035156 59.832031 60 58.976562 60 Z M 58.976562 60 " fill-opacity="1" fill-rule="nonzero"/></g><path fill="#204666" d="M 41.84375 31.449219 C 45.265625 31.449219 48.050781 28.664062 48.050781 25.242188 C 48.050781 21.820312 45.265625 19.035156 41.84375 19.035156 C 38.421875 19.035156 35.636719 21.820312 35.636719 25.242188 C 35.636719 28.664062 38.421875 31.449219 41.84375 31.449219 Z M 41.84375 31.449219 " fill-opacity="1" fill-rule="nonzero"/></svg>