<svg xmlns="http://www.w3.org/2000/svg" xmlns:xlink="http://www.w3.org/1999/xlink" width="200" zoomAndPan="magnify" viewBox="0 0 150 149.999998" height="200" preserveAspectRatio="xMidYMid meet" version="1.0"><defs><g/></defs><g fill="#222222" fill-opacity="1"><g transform="translate(75.009489, 116.301464)"><g><path d="M 59.652344 -63.160156 L 57.898438 -57.195312 C 52.398438 -61.992188 45.265625 -64.914062 37.078125 -64.914062 C 18.128906 -64.914062 3.976562 -50.644531 3.976562 -31.582031 C 3.976562 -12.515625 18.128906 1.871094 37.078125 1.871094 C 45.148438 1.871094 52.167969 -0.9375 57.546875 -5.730469 L 59.066406 0 L 72.402344 0 L 72.402344 -63.160156 Z M 38.480469 -14.269531 C 28.539062 -14.269531 21.289062 -21.753906 21.289062 -31.582031 C 21.289062 -41.523438 28.539062 -48.890625 38.480469 -48.890625 C 48.421875 -48.890625 55.675781 -41.523438 55.675781 -31.582031 C 55.675781 -21.636719 48.421875 -14.269531 38.480469 -14.269531 Z M 38.480469 -14.269531 "/></g></g></g><g fill="#222222" fill-opacity="1"><g transform="translate(-1.285517, 116.280536)"><g><path d="M 54.417969 -85.714844 L 54.417969 -59.554688 C 49.511719 -62.941406 43.675781 -64.8125 37.136719 -64.8125 C 17.984375 -64.8125 3.96875 -50.5625 3.96875 -31.414062 C 3.96875 -12.378906 17.984375 1.984375 37.136719 1.984375 C 44.84375 1.984375 51.617188 -0.699219 56.871094 -5.136719 L 58.855469 0.117188 L 71.46875 0.117188 L 71.46875 -85.714844 Z M 38.535156 -14.128906 C 28.609375 -14.128906 21.371094 -21.605469 21.371094 -31.414062 C 21.371094 -41.339844 28.609375 -48.695312 38.535156 -48.695312 C 48.460938 -48.695312 55.703125 -41.339844 55.703125 -31.414062 C 55.703125 -21.605469 48.460938 -14.128906 38.535156 -14.128906 Z M 38.535156 -14.128906 "/></g></g></g><g fill="#222222" fill-opacity="1"><g transform="translate(38.579904, 115.303839)"><g><path d="M 17.0625 -35.84375 L 51.1875 -35.84375 L 51.1875 -27.875 L 17.0625 -27.875 Z M 17.0625 -35.84375 "/></g></g></g></svg>