<svg xmlns="http://www.w3.org/2000/svg" xmlns:xlink="http://www.w3.org/1999/xlink" width="200" zoomAndPan="magnify" viewBox="0 0 150 149.999998" height="200" preserveAspectRatio="xMidYMid meet" version="1.0"><defs><g/></defs><g fill="#ffffff" fill-opacity="1"><g transform="translate(74.999997, 113.627996)"><g><path d="M 55.445312 -58.707031 L 53.816406 -53.164062 C 48.707031 -57.621094 42.074219 -60.339844 34.464844 -60.339844 C 16.851562 -60.339844 3.695312 -47.074219 3.695312 -29.355469 C 3.695312 -11.632812 16.851562 1.738281 34.464844 1.738281 C 41.964844 1.738281 48.488281 -0.871094 53.492188 -5.328125 L 54.902344 0 L 67.296875 0 L 67.296875 -58.707031 Z M 35.769531 -13.265625 C 26.527344 -13.265625 19.785156 -20.222656 19.785156 -29.355469 C 19.785156 -38.59375 26.527344 -45.445312 35.769531 -45.445312 C 45.011719 -45.445312 51.75 -38.59375 51.75 -29.355469 C 51.75 -20.113281 45.011719 -13.265625 35.769531 -13.265625 Z M 35.769531 -13.265625 "/></g></g></g><g fill="#ffffff" fill-opacity="1"><g transform="translate(0.445314, 113.647495)"><g><path d="M 50.574219 -79.65625 L 50.574219 -55.347656 C 46.015625 -58.496094 40.589844 -60.230469 34.511719 -60.230469 C 16.710938 -60.230469 3.691406 -46.992188 3.691406 -29.191406 C 3.691406 -11.503906 16.710938 1.84375 34.511719 1.84375 C 41.671875 1.84375 47.96875 -0.652344 52.851562 -4.773438 L 54.695312 0.109375 L 66.417969 0.109375 L 66.417969 -79.65625 Z M 35.8125 -13.132812 C 26.589844 -13.132812 19.859375 -20.078125 19.859375 -29.191406 C 19.859375 -38.417969 26.589844 -45.253906 35.8125 -45.253906 C 45.039062 -45.253906 51.765625 -38.417969 51.765625 -29.191406 C 51.765625 -20.078125 45.039062 -13.132812 35.8125 -13.132812 Z M 35.8125 -13.132812 "/></g></g></g></svg>