<svg xmlns="http://www.w3.org/2000/svg" xmlns:xlink="http://www.w3.org/1999/xlink" width="200" zoomAndPan="magnify" viewBox="0 0 150 149.999998" height="200" preserveAspectRatio="xMidYMid meet" version="1.0"><defs><g/></defs><g fill="#ffffff" fill-opacity="1"><g transform="translate(75.009489, 117.685071)"><g><path d="M 59.667969 -63.175781 L 57.910156 -57.210938 C 52.414062 -62.007812 45.277344 -64.929688 37.085938 -64.929688 C 18.132812 -64.929688 3.976562 -50.65625 3.976562 -31.589844 C 3.976562 -12.519531 18.132812 1.871094 37.085938 1.871094 C 45.160156 1.871094 52.179688 -0.9375 57.558594 -5.734375 L 59.082031 0 L 72.417969 0 L 72.417969 -63.175781 Z M 38.492188 -14.273438 C 28.546875 -14.273438 21.292969 -21.761719 21.292969 -31.589844 C 21.292969 -41.53125 28.546875 -48.902344 38.492188 -48.902344 C 48.433594 -48.902344 55.6875 -41.53125 55.6875 -31.589844 C 55.6875 -21.644531 48.433594 -14.273438 38.492188 -14.273438 Z M 38.492188 -14.273438 "/></g></g></g><g fill="#ffffff" fill-opacity="1"><g transform="translate(-1.305554, 116.91414)"><g><path d="M 54.421875 -85.71875 L 54.421875 -59.558594 C 49.515625 -62.945312 43.675781 -64.8125 37.136719 -64.8125 C 17.984375 -64.8125 3.96875 -50.566406 3.96875 -31.414062 C 3.96875 -12.378906 17.984375 1.984375 37.136719 1.984375 C 44.84375 1.984375 51.617188 -0.699219 56.875 -5.136719 L 58.859375 0.117188 L 71.472656 0.117188 L 71.472656 -85.71875 Z M 38.539062 -14.128906 C 28.613281 -14.128906 21.371094 -21.605469 21.371094 -31.414062 C 21.371094 -41.339844 28.613281 -48.699219 38.539062 -48.699219 C 48.464844 -48.699219 55.707031 -41.339844 55.707031 -31.414062 C 55.707031 -21.605469 48.464844 -14.128906 38.539062 -14.128906 Z M 38.539062 -14.128906 "/></g></g></g><g fill="#ffffff" fill-opacity="1"><g transform="translate(38.579904, 116.581877)"><g><path d="M 17.0625 -35.84375 L 51.203125 -35.84375 L 51.203125 -27.875 L 17.0625 -27.875 Z M 17.0625 -35.84375 "/></g></g></g></svg>