<svg xmlns="http://www.w3.org/2000/svg" xmlns:xlink="http://www.w3.org/1999/xlink" width="200" zoomAndPan="magnify" viewBox="0 0 150 149.999998" height="200" preserveAspectRatio="xMidYMid meet" version="1.0"><defs><g/></defs><g fill="#222222" fill-opacity="1"><g transform="translate(74.999997, 112.529165)"><g><path d="M 55.433594 -58.695312 L 53.800781 -53.148438 C 48.695312 -57.605469 42.0625 -60.324219 34.457031 -60.324219 C 16.847656 -60.324219 3.695312 -47.0625 3.695312 -29.347656 C 3.695312 -11.628906 16.847656 1.738281 34.457031 1.738281 C 41.953125 1.738281 48.476562 -0.871094 53.476562 -5.324219 L 54.890625 0 L 67.28125 0 L 67.28125 -58.695312 Z M 35.757812 -13.261719 C 26.519531 -13.261719 19.78125 -20.214844 19.78125 -29.347656 C 19.78125 -38.585938 26.519531 -45.433594 35.757812 -45.433594 C 45 -45.433594 51.738281 -38.585938 51.738281 -29.347656 C 51.738281 -20.109375 45 -13.261719 35.757812 -13.261719 Z M 35.757812 -13.261719 "/></g></g></g><g fill="#222222" fill-opacity="1"><g transform="translate(0.454216, 112.548613)"><g><path d="M 50.570312 -79.652344 L 50.570312 -55.34375 C 46.011719 -58.492188 40.585938 -60.226562 34.507812 -60.226562 C 16.710938 -60.226562 3.691406 -46.988281 3.691406 -29.191406 C 3.691406 -11.503906 16.710938 1.84375 34.507812 1.84375 C 41.671875 1.84375 47.964844 -0.652344 52.847656 -4.773438 L 54.691406 0.109375 L 66.414062 0.109375 L 66.414062 -79.652344 Z M 35.8125 -13.128906 C 26.585938 -13.128906 19.859375 -20.074219 19.859375 -29.191406 C 19.859375 -38.414062 26.585938 -45.25 35.8125 -45.25 C 45.035156 -45.25 51.761719 -38.414062 51.761719 -29.191406 C 51.761719 -20.074219 45.035156 -13.128906 35.8125 -13.128906 Z M 35.8125 -13.128906 "/></g></g></g></svg>