<svg xmlns="http://www.w3.org/2000/svg" xmlns:xlink="http://www.w3.org/1999/xlink" width="100" zoomAndPan="magnify" viewBox="0 0 75 74.999997" height="100" preserveAspectRatio="xMidYMid meet" version="1.0"><defs><clipPath id="id1"><path d="M 0 9.335938 L 75 9.335938 L 75 65.585938 L 0 65.585938 Z M 0 9.335938 " clip-rule="nonzero"/></clipPath><clipPath id="id2"><path d="M 0 9.335938 L 39 9.335938 L 39 49 L 0 49 Z M 0 9.335938 " clip-rule="nonzero"/></clipPath><clipPath id="id3"><path d="M 36 9.335938 L 75 9.335938 L 75 49 L 36 49 Z M 36 9.335938 " clip-rule="nonzero"/></clipPath></defs><g clip-path="url(#id1)"><path fill="#222222" d="M 1.648438 9.476562 L 73.351562 9.476562 C 74.183594 9.476562 74.851562 10.144531 74.851562 10.957031 L 74.851562 64.105469 C 74.851562 64.914062 74.183594 65.585938 73.351562 65.585938 L 1.648438 65.585938 C 0.816406 65.585938 0.148438 64.914062 0.148438 64.105469 L 0.148438 10.957031 C 0.148438 10.144531 0.816406 9.476562 1.648438 9.476562 Z M 71.851562 12.453125 L 3.148438 12.453125 L 3.148438 62.605469 L 71.851562 62.605469 Z M 71.851562 12.453125 " fill-opacity="1" fill-rule="nonzero"/></g><g clip-path="url(#id2)"><path fill="#222222" d="M 0.589844 12.015625 C 0.0078125 11.433594 0.0078125 10.5 0.589844 9.917969 C 1.171875 9.335938 2.105469 9.335938 2.707031 9.898438 L 38.558594 45.707031 C 39.140625 46.289062 39.140625 47.222656 38.558594 47.804688 C 37.976562 48.386719 37.042969 48.386719 36.441406 47.820312 Z M 0.589844 12.015625 " fill-opacity="1" fill-rule="nonzero"/></g><g clip-path="url(#id3)"><path fill="#222222" d="M 72.292969 9.898438 C 72.894531 9.335938 73.828125 9.335938 74.410156 9.917969 C 74.992188 10.5 74.992188 11.433594 74.410156 12.015625 L 38.558594 47.820312 C 37.976562 48.386719 37.023438 48.386719 36.441406 47.804688 C 35.859375 47.222656 35.859375 46.289062 36.460938 45.707031 Z M 72.292969 9.898438 " fill-opacity="1" fill-rule="nonzero"/></g></svg>