<svg xmlns="http://www.w3.org/2000/svg" xmlns:xlink="http://www.w3.org/1999/xlink" width="100" zoomAndPan="magnify" viewBox="0 0 75 74.999997" height="100" preserveAspectRatio="xMidYMid meet" version="1.0"><path fill="#812e17" d="M 37.5 0.625 C 16.789062 0.625 0 17.414062 0 38.125 C 0 55.695312 12.101562 70.398438 28.414062 74.46875 C 28.238281 73.960938 28.125 73.375 28.125 72.648438 L 28.125 66.238281 C 26.601562 66.238281 24.054688 66.238281 23.414062 66.238281 C 20.847656 66.238281 18.566406 65.132812 17.460938 63.085938 C 16.230469 60.804688 16.019531 57.320312 12.976562 55.191406 C 12.070312 54.480469 12.757812 53.671875 13.800781 53.78125 C 15.722656 54.324219 17.316406 55.644531 18.816406 57.601562 C 20.308594 59.558594 21.011719 60.003906 23.804688 60.003906 C 25.15625 60.003906 27.179688 59.925781 29.085938 59.625 C 30.113281 57.023438 31.882812 54.625 34.050781 53.492188 C 21.5625 52.210938 15.601562 45.996094 15.601562 37.5625 C 15.601562 33.929688 17.148438 30.417969 19.777344 27.460938 C 18.914062 24.523438 17.832031 18.53125 20.109375 16.25 C 25.726562 16.25 29.125 19.894531 29.941406 20.878906 C 32.742188 19.917969 35.816406 19.375 39.046875 19.375 C 42.285156 19.375 45.371094 19.917969 48.179688 20.882812 C 48.984375 19.90625 52.382812 16.25 58.015625 16.25 C 60.304688 18.535156 59.207031 24.550781 58.335938 27.480469 C 60.945312 30.433594 62.484375 33.9375 62.484375 37.5625 C 62.484375 45.992188 56.535156 52.199219 44.066406 53.492188 C 47.496094 55.28125 50 60.3125 50 64.101562 L 50 72.648438 C 50 72.972656 49.929688 73.207031 49.890625 73.484375 C 64.503906 68.363281 75 54.488281 75 38.125 C 75 17.414062 58.210938 0.625 37.5 0.625 Z M 37.5 0.625 " fill-opacity="1" fill-rule="nonzero"/></svg>