<svg xmlns="http://www.w3.org/2000/svg" xmlns:xlink="http://www.w3.org/1999/xlink" width="100" zoomAndPan="magnify" viewBox="0 0 75 74.999997" height="100" preserveAspectRatio="xMidYMid meet" version="1.0"><path fill="#204666" d="M 73.042969 30.5 L 66.886719 29.476562 C 66.207031 26.992188 65.226562 24.636719 63.949219 22.40625 L 67.582031 17.316406 C 67.742188 17.089844 67.859375 16.84375 67.933594 16.578125 C 68.007812 16.308594 68.03125 16.039062 68.007812 15.761719 C 67.988281 15.484375 67.917969 15.222656 67.800781 14.96875 C 67.683594 14.71875 67.527344 14.496094 67.332031 14.296875 L 60.703125 7.667969 C 60.507812 7.472656 60.28125 7.316406 60.03125 7.199219 C 59.777344 7.082031 59.515625 7.011719 59.238281 6.988281 C 58.960938 6.964844 58.691406 6.992188 58.421875 7.066406 C 58.15625 7.140625 57.90625 7.257812 57.683594 7.417969 L 52.59375 11.050781 C 50.363281 9.773438 48.007812 8.792969 45.523438 8.113281 L 44.5 1.957031 C 44.453125 1.683594 44.363281 1.425781 44.226562 1.1875 C 44.089844 0.945312 43.914062 0.734375 43.703125 0.554688 C 43.492188 0.375 43.253906 0.238281 42.992188 0.144531 C 42.734375 0.046875 42.464844 0 42.1875 0 L 32.8125 0 C 32.535156 0 32.265625 0.046875 32.003906 0.144531 C 31.746094 0.238281 31.507812 0.375 31.296875 0.554688 C 31.085938 0.734375 30.910156 0.945312 30.773438 1.1875 C 30.636719 1.425781 30.546875 1.683594 30.5 1.957031 L 29.476562 8.113281 C 26.992188 8.792969 24.636719 9.773438 22.40625 11.050781 L 17.316406 7.417969 C 17.09375 7.257812 16.84375 7.140625 16.578125 7.066406 C 16.308594 6.992188 16.039062 6.964844 15.761719 6.988281 C 15.484375 7.011719 15.222656 7.082031 14.96875 7.199219 C 14.71875 7.316406 14.492188 7.472656 14.296875 7.667969 L 7.667969 14.296875 C 7.472656 14.496094 7.316406 14.71875 7.199219 14.96875 C 7.082031 15.222656 7.011719 15.484375 6.992188 15.761719 C 6.96875 16.039062 6.992188 16.308594 7.066406 16.578125 C 7.140625 16.84375 7.257812 17.089844 7.417969 17.316406 L 11.054688 22.40625 C 9.773438 24.636719 8.792969 26.992188 8.113281 29.476562 L 1.957031 30.5 C 1.683594 30.546875 1.425781 30.636719 1.1875 30.773438 C 0.945312 30.910156 0.734375 31.085938 0.554688 31.296875 C 0.375 31.507812 0.238281 31.746094 0.144531 32.003906 C 0.046875 32.265625 0 32.535156 0 32.8125 L 0 42.1875 C 0 42.464844 0.046875 42.734375 0.144531 42.996094 C 0.238281 43.253906 0.375 43.492188 0.554688 43.703125 C 0.734375 43.914062 0.945312 44.089844 1.1875 44.226562 C 1.425781 44.363281 1.683594 44.453125 1.957031 44.5 L 8.113281 45.523438 C 8.792969 48.007812 9.773438 50.363281 11.050781 52.59375 L 7.417969 57.683594 C 7.257812 57.910156 7.140625 58.15625 7.066406 58.421875 C 6.992188 58.691406 6.96875 58.960938 6.992188 59.238281 C 7.011719 59.515625 7.082031 59.777344 7.199219 60.03125 C 7.316406 60.28125 7.472656 60.503906 7.667969 60.703125 L 14.296875 67.332031 C 14.496094 67.527344 14.71875 67.683594 14.96875 67.800781 C 15.222656 67.917969 15.484375 67.988281 15.761719 68.011719 C 16.039062 68.035156 16.3125 68.007812 16.578125 67.933594 C 16.84375 67.859375 17.09375 67.742188 17.316406 67.582031 L 22.40625 63.949219 C 24.636719 65.226562 26.992188 66.207031 29.476562 66.882812 L 30.5 73.042969 C 30.546875 73.316406 30.636719 73.574219 30.773438 73.8125 C 30.910156 74.054688 31.085938 74.265625 31.296875 74.445312 C 31.507812 74.625 31.746094 74.761719 32.003906 74.855469 C 32.265625 74.953125 32.535156 75 32.8125 75 L 42.1875 75 C 42.464844 75 42.734375 74.953125 42.992188 74.855469 C 43.253906 74.761719 43.492188 74.625 43.703125 74.445312 C 43.914062 74.265625 44.089844 74.054688 44.226562 73.8125 C 44.363281 73.574219 44.453125 73.316406 44.5 73.042969 L 45.523438 66.886719 C 48.007812 66.207031 50.363281 65.226562 52.59375 63.949219 L 57.683594 67.582031 C 57.90625 67.742188 58.15625 67.859375 58.421875 67.933594 C 58.691406 68.007812 58.960938 68.035156 59.238281 68.011719 C 59.515625 67.988281 59.777344 67.917969 60.03125 67.800781 C 60.28125 67.683594 60.507812 67.527344 60.703125 67.332031 L 67.332031 60.703125 C 67.527344 60.503906 67.683594 60.28125 67.800781 60.03125 C 67.917969 59.777344 67.988281 59.515625 68.007812 59.238281 C 68.03125 58.960938 68.007812 58.691406 67.933594 58.421875 C 67.859375 58.15625 67.742188 57.910156 67.582031 57.683594 L 63.949219 52.59375 C 65.226562 50.363281 66.207031 48.007812 66.882812 45.523438 L 73.042969 44.5 C 73.316406 44.453125 73.574219 44.363281 73.8125 44.226562 C 74.054688 44.089844 74.265625 43.914062 74.445312 43.703125 C 74.625 43.492188 74.761719 43.253906 74.855469 42.992188 C 74.953125 42.734375 75 42.464844 75 42.1875 L 75 32.8125 C 75 32.535156 74.953125 32.265625 74.855469 32.003906 C 74.761719 31.746094 74.625 31.507812 74.445312 31.296875 C 74.265625 31.085938 74.054688 30.910156 73.8125 30.773438 C 73.574219 30.636719 73.316406 30.546875 73.042969 30.5 Z M 70.3125 40.203125 L 64.589844 41.15625 C 64.117188 41.234375 63.707031 41.441406 63.359375 41.769531 C 63.011719 42.101562 62.785156 42.503906 62.683594 42.972656 C 62.027344 46.003906 60.855469 48.824219 59.171875 51.429688 C 58.910156 51.832031 58.785156 52.273438 58.796875 52.753906 C 58.808594 53.234375 58.957031 53.671875 59.234375 54.0625 L 62.613281 58.792969 L 58.792969 62.613281 L 54.058594 59.234375 C 53.667969 58.957031 53.234375 58.8125 52.753906 58.800781 C 52.273438 58.789062 51.832031 58.910156 51.429688 59.171875 C 48.824219 60.855469 46.003906 62.027344 42.972656 62.6875 C 42.5 62.789062 42.101562 63.011719 41.769531 63.359375 C 41.4375 63.707031 41.234375 64.117188 41.15625 64.589844 L 40.203125 70.3125 L 34.796875 70.3125 L 33.84375 64.589844 C 33.765625 64.117188 33.558594 63.707031 33.230469 63.359375 C 32.898438 63.011719 32.496094 62.785156 32.027344 62.683594 C 28.996094 62.027344 26.175781 60.855469 23.570312 59.171875 C 23.167969 58.910156 22.722656 58.789062 22.246094 58.800781 C 21.765625 58.8125 21.328125 58.957031 20.9375 59.234375 L 16.207031 62.613281 L 12.386719 58.792969 L 15.765625 54.058594 C 16.042969 53.667969 16.191406 53.234375 16.203125 52.753906 C 16.214844 52.273438 16.089844 51.832031 15.828125 51.429688 C 14.144531 48.824219 12.972656 46.003906 12.3125 42.972656 C 12.210938 42.5 11.988281 42.101562 11.640625 41.769531 C 11.292969 41.4375 10.882812 41.234375 10.410156 41.15625 L 4.6875 40.203125 L 4.6875 34.796875 L 10.410156 33.84375 C 10.882812 33.765625 11.292969 33.558594 11.640625 33.230469 C 11.988281 32.898438 12.210938 32.496094 12.3125 32.027344 C 12.972656 28.996094 14.144531 26.175781 15.828125 23.570312 C 16.089844 23.167969 16.214844 22.726562 16.203125 22.246094 C 16.191406 21.765625 16.042969 21.328125 15.765625 20.9375 L 12.386719 16.207031 L 16.207031 12.386719 L 20.941406 15.765625 C 21.328125 16.042969 21.765625 16.191406 22.246094 16.203125 C 22.726562 16.214844 23.167969 16.089844 23.570312 15.828125 C 26.175781 14.144531 28.996094 12.972656 32.027344 12.3125 C 32.5 12.210938 32.898438 11.988281 33.230469 11.640625 C 33.5625 11.292969 33.765625 10.882812 33.84375 10.40625 L 34.796875 4.6875 L 40.203125 4.6875 L 41.15625 10.410156 C 41.234375 10.882812 41.441406 11.292969 41.769531 11.640625 C 42.101562 11.988281 42.503906 12.210938 42.972656 12.3125 C 46.003906 12.972656 48.824219 14.144531 51.429688 15.828125 C 51.832031 16.089844 52.273438 16.214844 52.753906 16.203125 C 53.234375 16.191406 53.671875 16.046875 54.0625 15.765625 L 58.792969 12.386719 L 62.613281 16.207031 L 59.234375 20.941406 C 58.957031 21.332031 58.8125 21.765625 58.800781 22.246094 C 58.789062 22.726562 58.910156 23.167969 59.171875 23.570312 C 60.855469 26.175781 62.027344 28.996094 62.6875 32.027344 C 62.789062 32.5 63.011719 32.898438 63.359375 33.230469 C 63.707031 33.5625 64.117188 33.765625 64.589844 33.84375 L 70.3125 34.796875 Z M 70.3125 40.203125 " fill-opacity="1" fill-rule="nonzero"/><path fill="#204666" d="M 37.5 18.75 C 36.886719 18.75 36.273438 18.78125 35.664062 18.839844 C 35.050781 18.902344 34.445312 18.992188 33.84375 19.109375 C 33.238281 19.230469 32.644531 19.378906 32.058594 19.558594 C 31.46875 19.734375 30.890625 19.941406 30.324219 20.175781 C 29.757812 20.414062 29.203125 20.675781 28.660156 20.964844 C 28.121094 21.253906 27.59375 21.570312 27.082031 21.910156 C 26.574219 22.25 26.078125 22.617188 25.605469 23.007812 C 25.128906 23.394531 24.675781 23.808594 24.242188 24.242188 C 23.808594 24.675781 23.394531 25.128906 23.007812 25.605469 C 22.617188 26.078125 22.25 26.574219 21.910156 27.082031 C 21.570312 27.59375 21.253906 28.121094 20.964844 28.660156 C 20.675781 29.203125 20.414062 29.757812 20.175781 30.324219 C 19.941406 30.890625 19.734375 31.46875 19.558594 32.058594 C 19.378906 32.644531 19.230469 33.238281 19.109375 33.84375 C 18.992188 34.445312 18.902344 35.050781 18.839844 35.664062 C 18.78125 36.273438 18.75 36.886719 18.75 37.5 C 18.75 38.113281 18.78125 38.726562 18.839844 39.335938 C 18.902344 39.949219 18.992188 40.554688 19.109375 41.15625 C 19.230469 41.761719 19.378906 42.355469 19.558594 42.941406 C 19.734375 43.53125 19.941406 44.109375 20.175781 44.675781 C 20.414062 45.242188 20.675781 45.796875 20.964844 46.339844 C 21.253906 46.878906 21.570312 47.40625 21.910156 47.917969 C 22.25 48.425781 22.617188 48.921875 23.007812 49.394531 C 23.394531 49.871094 23.808594 50.324219 24.242188 50.757812 C 24.675781 51.191406 25.128906 51.605469 25.605469 51.992188 C 26.078125 52.382812 26.574219 52.75 27.082031 53.089844 C 27.59375 53.429688 28.121094 53.746094 28.660156 54.035156 C 29.203125 54.324219 29.757812 54.585938 30.324219 54.824219 C 30.890625 55.058594 31.46875 55.265625 32.058594 55.441406 C 32.644531 55.621094 33.238281 55.769531 33.84375 55.890625 C 34.445312 56.007812 35.050781 56.097656 35.664062 56.160156 C 36.273438 56.21875 36.886719 56.25 37.5 56.25 C 38.113281 56.25 38.726562 56.21875 39.335938 56.160156 C 39.949219 56.097656 40.554688 56.007812 41.15625 55.890625 C 41.761719 55.769531 42.355469 55.621094 42.941406 55.441406 C 43.53125 55.265625 44.109375 55.058594 44.675781 54.824219 C 45.242188 54.585938 45.796875 54.324219 46.339844 54.035156 C 46.878906 53.746094 47.40625 53.429688 47.917969 53.089844 C 48.425781 52.75 48.921875 52.382812 49.394531 51.992188 C 49.871094 51.605469 50.324219 51.191406 50.757812 50.757812 C 51.191406 50.324219 51.605469 49.871094 51.992188 49.394531 C 52.382812 48.921875 52.75 48.425781 53.089844 47.917969 C 53.429688 47.40625 53.746094 46.878906 54.035156 46.339844 C 54.324219 45.796875 54.585938 45.242188 54.824219 44.675781 C 55.058594 44.109375 55.265625 43.53125 55.441406 42.941406 C 55.621094 42.355469 55.769531 41.761719 55.890625 41.15625 C 56.007812 40.554688 56.097656 39.949219 56.160156 39.335938 C 56.21875 38.726562 56.25 38.113281 56.25 37.5 C 56.25 36.886719 56.21875 36.273438 56.15625 35.664062 C 56.097656 35.050781 56.007812 34.445312 55.886719 33.84375 C 55.765625 33.242188 55.617188 32.648438 55.4375 32.058594 C 55.257812 31.472656 55.050781 30.894531 54.816406 30.328125 C 54.582031 29.761719 54.320312 29.207031 54.03125 28.664062 C 53.738281 28.125 53.425781 27.597656 53.082031 27.089844 C 52.742188 26.578125 52.375 26.085938 51.988281 25.609375 C 51.597656 25.136719 51.1875 24.683594 50.75 24.246094 C 50.316406 23.8125 49.863281 23.402344 49.390625 23.011719 C 48.914062 22.625 48.421875 22.257812 47.910156 21.917969 C 47.402344 21.574219 46.875 21.261719 46.335938 20.96875 C 45.792969 20.679688 45.238281 20.417969 44.671875 20.183594 C 44.105469 19.949219 43.527344 19.742188 42.941406 19.5625 C 42.351562 19.382812 41.757812 19.234375 41.15625 19.113281 C 40.554688 18.992188 39.949219 18.902344 39.335938 18.84375 C 38.726562 18.78125 38.113281 18.75 37.5 18.75 Z M 37.5 51.5625 C 36.578125 51.5625 35.664062 51.472656 34.757812 51.292969 C 33.851562 51.113281 32.972656 50.84375 32.117188 50.492188 C 31.265625 50.140625 30.453125 49.707031 29.6875 49.191406 C 28.917969 48.679688 28.210938 48.097656 27.554688 47.445312 C 26.902344 46.789062 26.320312 46.082031 25.808594 45.3125 C 25.292969 44.546875 24.859375 43.734375 24.507812 42.882812 C 24.15625 42.027344 23.886719 41.148438 23.707031 40.242188 C 23.527344 39.335938 23.4375 38.421875 23.4375 37.5 C 23.4375 36.578125 23.527344 35.664062 23.707031 34.757812 C 23.886719 33.851562 24.15625 32.972656 24.507812 32.117188 C 24.859375 31.265625 25.292969 30.453125 25.808594 29.6875 C 26.320312 28.917969 26.902344 28.210938 27.554688 27.554688 C 28.210938 26.902344 28.917969 26.320312 29.6875 25.808594 C 30.453125 25.292969 31.265625 24.859375 32.117188 24.507812 C 32.972656 24.15625 33.851562 23.886719 34.757812 23.707031 C 35.664062 23.527344 36.578125 23.4375 37.5 23.4375 C 38.421875 23.4375 39.335938 23.527344 40.242188 23.707031 C 41.148438 23.886719 42.027344 24.15625 42.882812 24.507812 C 43.734375 24.859375 44.546875 25.292969 45.3125 25.808594 C 46.082031 26.320312 46.789062 26.902344 47.445312 27.554688 C 48.097656 28.210938 48.679688 28.917969 49.191406 29.6875 C 49.707031 30.453125 50.140625 31.265625 50.492188 32.117188 C 50.84375 32.972656 51.113281 33.851562 51.292969 34.757812 C 51.472656 35.664062 51.5625 36.578125 51.5625 37.5 C 51.5625 38.421875 51.46875 39.335938 51.289062 40.242188 C 51.109375 41.148438 50.84375 42.027344 50.488281 42.878906 C 50.132812 43.730469 49.699219 44.542969 49.1875 45.308594 C 48.675781 46.078125 48.09375 46.785156 47.4375 47.4375 C 46.785156 48.09375 46.078125 48.675781 45.308594 49.1875 C 44.542969 49.699219 43.730469 50.132812 42.878906 50.488281 C 42.027344 50.84375 41.148438 51.109375 40.242188 51.289062 C 39.335938 51.46875 38.421875 51.5625 37.5 51.5625 Z M 37.5 51.5625 " fill-opacity="1" fill-rule="nonzero"/><path fill="#204666" d="M 34.792969 40.851562 L 32.125 38.1875 L 28.8125 41.5 L 33.5 46.1875 C 33.957031 46.644531 34.507812 46.875 35.15625 46.875 C 35.234375 46.875 35.308594 46.871094 35.386719 46.863281 C 36.125 46.792969 36.695312 46.445312 37.105469 45.832031 L 46.480469 31.769531 L 42.582031 29.167969 Z M 34.792969 40.851562 " fill-opacity="1" fill-rule="nonzero"/></svg>