<svg xmlns="http://www.w3.org/2000/svg" xmlns:xlink="http://www.w3.org/1999/xlink" width="100" zoomAndPan="magnify" viewBox="0 0 75 74.999997" height="100" preserveAspectRatio="xMidYMid meet" version="1.0"><defs><clipPath id="id1"><path d="M 20.996094 24.976562 L 53.996094 24.976562 L 53.996094 63.226562 L 20.996094 63.226562 Z M 20.996094 24.976562 " clip-rule="nonzero"/></clipPath><clipPath id="id2"><path d="M 0 32.851562 L 75 32.851562 L 75 74.851562 L 0 74.851562 Z M 0 32.851562 " clip-rule="nonzero"/></clipPath><clipPath id="id3"><path d="M 26.25 48.300781 L 48.75 48.300781 L 48.75 59.550781 L 26.25 59.550781 Z M 26.25 48.300781 " clip-rule="nonzero"/></clipPath></defs><g clip-path="url(#id1)"><path fill="#204666" d="M 20.996094 24.980469 L 20.996094 27.695312 L 53.996094 27.695312 L 53.996094 24.980469 L 20.996094 24.980469 M 51.28125 27.695312 L 53.996094 27.695312 L 53.996094 51.492188 L 51.28125 51.492188 L 51.28125 27.695312 M 20.996094 27.695312 L 23.714844 27.695312 L 23.714844 51.492188 L 20.996094 51.492188 L 20.996094 27.695312 M 51.28125 51.492188 L 51.28125 58.730469 L 37.503906 51.492188 L 23.714844 58.730469 L 23.714844 51.492188 L 20.996094 51.492188 L 20.996094 63.222656 L 37.503906 54.558594 L 53.996094 63.222656 L 53.996094 51.492188 L 51.28125 51.492188 " fill-opacity="1" fill-rule="nonzero"/></g><g clip-path="url(#id2)"><path fill="#204666" d="M 0.0078125 32.851562 L 74.992188 32.851562 L 74.992188 74.851562 L 0.0078125 74.851562 L 0.0078125 32.851562 " fill-opacity="1" fill-rule="nonzero"/></g><path stroke-linecap="butt" transform="matrix(1.5, 0, 0, 1.5, 0.0000015, 48.299995)" fill="none" stroke-linejoin="miter" d="M -0.000001 0.00052413 L 50.000003 0.00052413 " stroke="#f1f1f1" stroke-width="1" stroke-opacity="1" stroke-miterlimit="4"/><g clip-path="url(#id3)"><path fill="#f1f1f1" d="M 26.25 48.300781 L 48.75 48.300781 L 48.75 59.550781 L 26.25 59.550781 L 26.25 48.300781 " fill-opacity="1" fill-rule="nonzero"/></g></svg>